<svg width="30" height="30" viewBox="0 0 30 30" fill="none" xmlns="http://www.w3.org/2000/svg">
<g filter="url(#filter0_d_1_2050)">
<path d="M22.9966 23.0371C21.4459 24.3036 19.7527 24.1036 18.1229 23.5037C16.3981 22.8904 14.8157 22.8638 12.996 23.5037C10.7174 24.3303 9.51476 24.0903 8.15392 23.0371C0.431929 16.3313 1.57124 6.11923 10.3376 5.74594C12.4738 5.83926 13.9612 6.73248 15.2113 6.81247C17.0785 6.49251 18.8666 5.57263 20.8604 5.69261C23.2498 5.85259 25.0537 6.65249 26.2405 8.09231C21.3035 10.5853 22.4744 16.0646 27 17.5978C26.098 19.5975 24.9271 21.5839 22.9808 23.0504L22.9966 23.0371ZM15.0531 5.66595C14.8157 2.69299 17.6798 0.23997 20.9712 0C21.43 3.43957 17.2684 5.99924 15.0531 5.66595Z" fill="white"/>
</g>
<defs>
<filter id="filter0_d_1_2050" x="0.0169492" y="0" width="29.9661" height="29.9661" filterUnits="userSpaceOnUse" color-interpolation-filters="sRGB">
<feFlood flood-opacity="0" result="BackgroundImageFix"/>
<feColorMatrix in="SourceAlpha" type="matrix" values="0 0 0 0 0 0 0 0 0 0 0 0 0 0 0 0 0 0 127 0" result="hardAlpha"/>
<feOffset dy="2.98305"/>
<feGaussianBlur stdDeviation="1.49153"/>
<feComposite in2="hardAlpha" operator="out"/>
<feColorMatrix type="matrix" values="0 0 0 0 0 0 0 0 0 0 0 0 0 0 0 0 0 0 0.09 0"/>
<feBlend mode="normal" in2="BackgroundImageFix" result="effect1_dropShadow_1_2050"/>
<feBlend mode="normal" in="SourceGraphic" in2="effect1_dropShadow_1_2050" result="shape"/>
</filter>
</defs>
</svg>
