<svg width="20" height="20" viewBox="0 0 20 20" fill="none" xmlns="http://www.w3.org/2000/svg">
<path d="M17.4998 11.6667V12.5001C17.4998 14.0917 16.6082 15.4751 15.2915 16.1751L15.8332 18.3334H14.1665L13.7498 16.6667H6.24984L5.83317 18.3334H4.1665L4.70817 16.1751C4.04083 15.8211 3.48259 15.2919 3.0935 14.6443C2.7044 13.9968 2.49916 13.2555 2.49984 12.5001V11.6667H1.6665V10.0001H16.6665V4.16675C16.6665 3.94573 16.5787 3.73377 16.4224 3.57749C16.2661 3.42121 16.0542 3.33341 15.8332 3.33341C15.4165 3.33341 15.0998 3.61675 14.9998 3.99175C15.5248 4.44175 15.8332 5.10841 15.8332 5.83341H10.8332C10.8332 5.17037 11.0966 4.53449 11.5654 4.06565C12.0342 3.59681 12.6701 3.33341 13.3332 3.33341H13.4748C13.8165 2.36675 14.7415 1.66675 15.8332 1.66675C16.4962 1.66675 17.1321 1.93014 17.6009 2.39898C18.0698 2.86782 18.3332 3.50371 18.3332 4.16675V11.6667H17.4998ZM15.8332 11.6667H4.1665V12.5001C4.1665 13.1631 4.4299 13.799 4.89874 14.2678C5.36758 14.7367 6.00346 15.0001 6.6665 15.0001H13.3332C13.9962 15.0001 14.6321 14.7367 15.1009 14.2678C15.5698 13.799 15.8332 13.1631 15.8332 12.5001V11.6667Z" fill="#696974"/>
</svg>
