<svg width="20" height="20" viewBox="0 0 20 20" fill="none" xmlns="http://www.w3.org/2000/svg">
<path d="M6.66683 4.16675C6.25016 4.16675 5.8335 4.34175 5.5085 4.66675C5.1835 4.99175 5.00016 5.37508 5.00016 5.83341V8.33342C4.5585 8.33342 4.16683 8.49175 3.82516 8.82508C3.4835 9.15842 3.3335 9.55841 3.3335 10.0001V14.1667H4.45016L5.00016 15.8334H5.8335L6.4085 14.1667H13.6335L14.1668 15.8334H15.0002L15.5502 14.1667H16.6668V10.0001C16.6668 9.55841 16.5085 9.16675 16.1752 8.82508C15.8418 8.48342 15.4418 8.33342 15.0002 8.33342V5.83341C15.0002 5.37508 14.8335 5.00008 14.4918 4.66675C14.1502 4.33341 13.7502 4.16675 13.3335 4.16675M6.66683 5.83341H9.16683V8.33342H6.66683M10.8335 5.83341H13.3335V8.33342H10.8335M5.00016 10.0001H15.0002V12.5001H5.00016V10.0001Z" fill="#696974"/>
</svg>
