<svg width="30" height="30" viewBox="0 0 30 30" fill="none" xmlns="http://www.w3.org/2000/svg">
<path d="M26.25 25H28.75V27.5H1.25V25H3.75V3.75C3.75 3.41848 3.8817 3.10054 4.11612 2.86612C4.35054 2.6317 4.66848 2.5 5 2.5H25C25.3315 2.5 25.6495 2.6317 25.8839 2.86612C26.1183 3.10054 26.25 3.41848 26.25 3.75V25ZM10 13.75V16.25H13.75V13.75H10ZM10 8.75V11.25H13.75V8.75H10ZM10 18.75V21.25H13.75V18.75H10ZM16.25 18.75V21.25H20V18.75H16.25ZM16.25 13.75V16.25H20V13.75H16.25ZM16.25 8.75V11.25H20V8.75H16.25Z" fill="#696974"/>
</svg>
