<svg width="30" height="30" viewBox="0 0 30 30" fill="none" xmlns="http://www.w3.org/2000/svg">
<g clip-path="url(#clip0_157_589)">
<path d="M9.10498 13.4305H13.6167V8.91602H9.10498V13.4305ZM11.5856 9.36648H13.1644V10.9466H11.5856V9.36648ZM11.5856 11.399H13.1644V12.9801H11.5856V11.399ZM9.55592 9.36648H11.1342V10.9466H9.55592V9.36648ZM9.55592 11.399H11.1342V12.9801H9.55592V11.399ZM16.8347 25.9265H21.3459V21.4105H16.8347V25.9265ZM19.3153 21.8624H20.894V23.4421H19.3153V21.8624ZM19.3153 23.8949H20.894V25.4746H19.3153V23.8949ZM17.2851 21.8624H18.8634V23.4421H17.2851V21.8624ZM17.2851 23.8949H18.8634V25.4746H17.2851V23.8949Z" fill="#696974"/>
<path d="M29.0625 27.4448C29.0625 27.2456 28.9833 27.0661 28.8558 26.933C28.9837 26.7675 29.0625 26.5612 29.0625 26.3358C29.0625 26.0743 28.9587 25.8235 28.7738 25.6386C28.5889 25.4536 28.3382 25.3497 28.0767 25.3495C27.9647 25.3495 27.8583 25.372 27.7584 25.4067C27.712 25.3053 27.643 25.2158 27.5567 25.1451C27.4704 25.0744 27.369 25.0244 27.2604 24.9989C27.1518 24.9735 27.0387 24.9732 26.93 24.9981C26.8212 25.0231 26.7196 25.0726 26.633 25.1428C26.6573 25.0347 26.6571 24.9226 26.6323 24.8146C26.6075 24.7066 26.5588 24.6056 26.4897 24.519C26.4207 24.4324 26.333 24.3624 26.2333 24.3142C26.1335 24.266 26.0242 24.2408 25.9134 24.2405C25.5497 24.2405 25.2483 24.5044 25.1864 24.8503C25.0987 24.7754 24.9873 24.7338 24.8719 24.7331C24.6 24.7331 24.3792 24.9539 24.3792 25.2272V19.1531H26.4248L23.2678 15.6375H18.5916V6.71016H21.4519L17.8425 4.64578V2.00437H18.3759V0.9375H14.6452V2.00437H15.1786V3.12141L11.3606 0.9375L1.26891 6.71016H4.12922V15.6375L0.9375 19.1531H2.98312V24.4481C2.84599 24.315 2.66238 24.2405 2.47125 24.2405C2.1075 24.2405 1.80609 24.5044 1.74422 24.8503C1.65649 24.7754 1.54508 24.7338 1.42969 24.7331C1.15828 24.7331 0.9375 24.9534 0.9375 25.2267V29.0625H29.0625V28.1836H28.3237C28.7316 28.1836 29.0625 27.8522 29.0625 27.4448ZM1.8 25.7194C1.93641 25.7194 2.04609 25.8291 2.04609 25.9655C2.04609 26.1019 1.93641 25.9242 1.8 25.9242C1.66359 25.9242 1.55391 26.1019 1.55391 25.9655C1.55391 25.8291 1.66359 25.7194 1.8 25.7194ZM1.37859 26.7066C1.24266 26.7066 1.1325 26.843 1.1325 26.7066C1.13527 26.6431 1.16243 26.5831 1.20832 26.5392C1.25422 26.4953 1.3153 26.4707 1.37883 26.4707C1.44236 26.4707 1.50344 26.4953 1.54933 26.5392C1.59522 26.5831 1.62239 26.6431 1.62516 26.7066C1.62563 26.843 1.515 26.7066 1.37859 26.7066ZM2.22469 27.4448C1.95234 27.4448 1.73156 27.825 1.73156 27.5522C1.73156 27.4214 1.78352 27.296 1.876 27.2035C1.96847 27.111 2.0939 27.0591 2.22469 27.0591C2.35547 27.0591 2.4809 27.111 2.57338 27.2035C2.66586 27.296 2.71781 27.4214 2.71781 27.5522C2.71781 27.8245 2.49703 27.4448 2.22469 27.4448ZM2.53781 25.3828C2.35359 25.3828 2.20406 25.6575 2.20406 25.4728C2.20238 25.4279 2.20977 25.3831 2.2258 25.3411C2.24182 25.2991 2.26616 25.2608 2.29733 25.2284C2.32851 25.1961 2.3659 25.1703 2.40726 25.1527C2.44862 25.1351 2.4931 25.1261 2.53805 25.1261C2.58299 25.1261 2.62747 25.1351 2.66883 25.1527C2.71019 25.1703 2.74758 25.1961 2.77876 25.2284C2.80994 25.2608 2.83427 25.2991 2.8503 25.3411C2.86632 25.3831 2.87371 25.4279 2.87203 25.4728C2.87203 25.6575 2.7225 25.3828 2.53781 25.3828ZM5.06672 6.71016H17.655V15.6375H5.06672V6.71016ZM3.77016 27.1083C3.58547 27.1083 3.43641 27.383 3.43641 27.1983C3.43641 27.1098 3.47157 27.0249 3.53416 26.9623C3.59675 26.8997 3.68164 26.8645 3.77016 26.8645C3.85867 26.8645 3.94356 26.8997 4.00615 26.9623C4.06874 27.0249 4.10391 27.1098 4.10391 27.1983C4.10391 27.383 3.95484 27.1083 3.77016 27.1083ZM4.06875 26.2767C4.06875 26.2117 4.08157 26.1472 4.10647 26.0871C4.13136 26.027 4.16786 25.9724 4.21387 25.9264C4.25988 25.8804 4.3145 25.8439 4.37461 25.819C4.43472 25.7941 4.49915 25.7812 4.56422 25.7812C4.62928 25.7812 4.69371 25.7941 4.75383 25.819C4.81394 25.8439 4.86856 25.8804 4.91457 25.9264C4.96058 25.9724 4.99707 26.027 5.02197 26.0871C5.04687 26.1472 5.05969 26.2117 5.05969 26.2767C5.05969 26.5505 4.8375 26.1197 4.56375 26.1197C4.29047 26.1197 4.06875 26.5505 4.06875 26.2767ZM4.82906 27.4462C4.69266 27.4462 4.58297 27.5822 4.58297 27.4462C4.58297 27.3098 4.69266 27.2002 4.82906 27.2002C4.96547 27.2002 5.07516 27.3098 5.07516 27.4462C5.07516 27.5822 4.96547 27.4462 4.82906 27.4462ZM11.8922 25.3195C11.8136 25.3195 11.7381 25.2883 11.6825 25.2327C11.6269 25.1771 11.5957 25.1017 11.5957 25.023C11.5957 24.9444 11.6269 24.869 11.6825 24.8134C11.7381 24.7578 11.8136 24.7266 11.8922 24.7266C11.9708 24.7266 12.0462 24.7578 12.1018 24.8134C12.1574 24.869 12.1887 24.9444 12.1887 25.023C12.1887 25.1017 12.1574 25.1771 12.1018 25.2327C12.0462 25.2883 11.9708 25.3195 11.8922 25.3195ZM12.5827 28.125V22.6519H12.9783V21.8625H8.24016V22.6523H8.63484V28.125H5.16937C5.27988 28.0786 5.37739 28.0059 5.45344 27.9132C5.52949 27.8206 5.58179 27.7107 5.60581 27.5933C5.62982 27.4759 5.62482 27.3543 5.59125 27.2393C5.55767 27.1242 5.49653 27.0191 5.41313 26.933C5.54109 26.767 5.61984 26.5612 5.61984 26.3358C5.61984 26.0743 5.516 25.8235 5.33114 25.6386C5.14629 25.4536 4.89555 25.3497 4.63406 25.3495C4.52203 25.3495 4.41562 25.372 4.31578 25.4067C4.23485 25.2388 4.09358 25.1076 3.92016 25.0392V19.1531H23.4417V28.125H12.5827ZM25.2427 25.7194C25.3791 25.7194 25.4888 25.8291 25.4888 25.9655C25.4888 26.1019 25.3791 25.9242 25.2427 25.9242C25.1063 25.9242 24.9966 26.1019 24.9966 25.9655C24.9966 25.8291 25.1063 25.7194 25.2427 25.7194ZM24.8212 26.7066C24.6853 26.7066 24.5752 26.843 24.5752 26.7066C24.5779 26.6431 24.6051 26.5831 24.651 26.5392C24.6969 26.4953 24.758 26.4707 24.8215 26.4707C24.885 26.4707 24.9461 26.4953 24.992 26.5392C25.0379 26.5831 25.065 26.6431 25.0678 26.7066C25.0683 26.843 24.9577 26.7066 24.8212 26.7066ZM25.6669 27.4448C25.395 27.4448 25.1742 27.825 25.1742 27.5522C25.1742 27.4214 25.2262 27.296 25.3187 27.2035C25.4111 27.111 25.5366 27.0591 25.6673 27.0591C25.7981 27.0591 25.9236 27.111 26.016 27.2035C26.1085 27.296 26.1605 27.4214 26.1605 27.5522C26.1605 27.8245 25.9397 27.4448 25.6669 27.4448ZM25.9805 25.3828C25.7962 25.3828 25.6467 25.6575 25.6467 25.4728C25.645 25.4279 25.6524 25.3831 25.6685 25.3411C25.6845 25.2991 25.7088 25.2608 25.74 25.2284C25.7712 25.1961 25.8086 25.1703 25.8499 25.1527C25.8913 25.1351 25.9358 25.1261 25.9807 25.1261C26.0256 25.1261 26.0701 25.1351 26.1115 25.1527C26.1528 25.1703 26.1902 25.1961 26.2214 25.2284C26.2526 25.2608 26.2769 25.2991 26.293 25.3411C26.309 25.3831 26.3164 25.4279 26.3147 25.4728C26.3147 25.6575 26.1647 25.3828 25.9805 25.3828ZM27.2123 27.1083C27.0281 27.1083 26.8791 27.383 26.8791 27.1983C26.8791 27.1098 26.9142 27.0249 26.9768 26.9623C27.0394 26.8997 27.1243 26.8645 27.2128 26.8645C27.3013 26.8645 27.3862 26.8997 27.4488 26.9623C27.5114 27.0249 27.5466 27.1098 27.5466 27.1983C27.5466 27.383 27.397 27.1083 27.2123 27.1083ZM27.5109 26.2767C27.5109 26.1453 27.5632 26.0192 27.6561 25.9262C27.7491 25.8332 27.8752 25.781 28.0066 25.781C28.1381 25.781 28.2642 25.8332 28.3572 25.9262C28.4501 26.0192 28.5023 26.1453 28.5023 26.2767C28.5023 26.5505 28.2802 26.1197 28.0064 26.1197C27.7331 26.1197 27.5109 26.5505 27.5109 26.2767ZM28.2717 27.4462C28.1353 27.4462 28.0256 27.5822 28.0256 27.4462C28.0256 27.3098 28.1353 27.2002 28.2717 27.2002C28.4081 27.2002 28.5178 27.3098 28.5178 27.4462C28.5178 27.5822 28.4081 27.4462 28.2717 27.4462Z" fill="#696974"/>
</g>
<defs>
<clipPath id="clip0_157_589">
<rect width="30" height="30" fill="white"/>
</clipPath>
</defs>
</svg>
