<svg width="24" height="24" viewBox="0 0 24 24" fill="none" xmlns="http://www.w3.org/2000/svg">
<path d="M19.6799 6.71998H17.2799V1.4011C17.2799 0.8923 16.8503 0.47998 16.3199 0.47998C15.7895 0.47998 15.3599 0.8923 15.3599 1.4011V6.71998H7.67988V1.4011C7.67988 0.8923 7.25028 0.47998 6.7194 0.47998C6.189 0.47998 5.75988 0.8923 5.75988 1.4011V6.71998H3.35988C3.09444 6.71998 2.87988 7.1371 2.87988 7.3915V9.69598C2.87988 12.4603 7.67988 15.6701 7.67988 20.1101V21.6H9.59988V23.52H13.4399V21.6H15.3599V20.1101C15.3599 15.6701 20.1599 12.4598 20.1599 9.69598V7.3915C20.1599 7.1371 19.9453 6.71998 19.6799 6.71998ZM10.9952 14.5862C11.0264 14.4854 10.9631 14.4 10.8532 14.4H8.98836C8.87796 14.4 8.84676 14.3376 8.91684 14.2565C8.91684 14.2565 12.7592 9.38014 12.8341 9.28606C12.8908 9.19678 12.9532 9.22798 12.9335 9.3307C12.9037 9.46078 12.0834 12.7877 12.0834 12.7877C12.0436 12.8856 12.1012 12.96 12.2101 12.96H14.0759C14.1858 12.96 14.2208 13.0339 14.1536 13.1174C14.1536 13.1174 10.3055 18.1104 10.2364 18.1939C10.1668 18.2774 10.1024 18.252 10.1375 18.1099L10.9952 14.5862Z" fill="#24233C"/>
</svg>
