<svg width="24" height="24" viewBox="0 0 24 24" fill="none" xmlns="http://www.w3.org/2000/svg">
<g clip-path="url(#clip0_1_1719)">
<path d="M21.4284 0.856934H2.57122C1.62445 0.856934 0.856934 1.62445 0.856934 2.57122V7.71408C0.856934 8.66085 1.62445 9.42836 2.57122 9.42836H21.4284C22.3751 9.42836 23.1426 8.66085 23.1426 7.71408V2.57122C23.1426 1.62445 22.3751 0.856934 21.4284 0.856934Z" stroke="white" stroke-linecap="round" stroke-linejoin="round"/>
<path d="M5.57136 3.85693C5.31707 3.85693 5.06849 3.93234 4.85705 4.07362C4.64562 4.21489 4.48083 4.41569 4.38351 4.65063C4.2862 4.88556 4.26074 5.14407 4.31035 5.39348C4.35996 5.64288 4.48241 5.87197 4.66222 6.05179C4.84203 6.2316 5.07113 6.35405 5.32053 6.40366C5.56993 6.45327 5.82845 6.42781 6.06338 6.33049C6.29831 6.23318 6.49912 6.06839 6.64039 5.85695C6.78167 5.64552 6.85707 5.39694 6.85707 5.14265C6.85263 4.80304 6.71575 4.47858 6.47559 4.23842C6.23542 3.99826 5.91097 3.86137 5.57136 3.85693Z" fill="white"/>
<path d="M10.2855 5.14307H13.7141M2.57122 9.42878C2.11656 9.42878 1.68053 9.60939 1.35904 9.93088C1.03755 10.2524 0.856934 10.6884 0.856934 11.1431V16.2859C0.856934 16.7406 1.03755 17.1766 1.35904 17.4981C1.68053 17.8196 2.11656 18.0002 2.57122 18.0002H21.4284C21.883 18.0002 22.3191 17.8196 22.6405 17.4981C22.962 17.1766 23.1426 16.7406 23.1426 16.2859V11.1431C23.1426 10.6884 22.962 10.2524 22.6405 9.93088C22.3191 9.60939 21.883 9.42878 21.4284 9.42878" stroke="white" stroke-linecap="round" stroke-linejoin="round"/>
<path d="M5.57136 12.4287C5.31707 12.4287 5.06849 12.5041 4.85705 12.6454C4.64562 12.7867 4.48083 12.9875 4.38351 13.2224C4.2862 13.4573 4.26074 13.7159 4.31035 13.9653C4.35996 14.2147 4.48241 14.4438 4.66222 14.6236C4.84203 14.8034 5.07113 14.9258 5.32053 14.9754C5.56993 15.025 5.82845 14.9996 6.06338 14.9023C6.29831 14.805 6.49912 14.6402 6.64039 14.4287C6.78167 14.2173 6.85707 13.9687 6.85707 13.7144C6.85263 13.3748 6.71575 13.0504 6.47559 12.8102C6.23542 12.57 5.91097 12.4332 5.57136 12.4287Z" fill="white"/>
<path d="M10.2859 13.7144H13.7144M12.0001 18.0001V23.1429M3.42871 23.1429H20.5716" stroke="white" stroke-linecap="round" stroke-linejoin="round"/>
</g>
<defs>
<clipPath id="clip0_1_1719">
<rect width="24" height="24" fill="white"/>
</clipPath>
</defs>
</svg>
