<svg width="30" height="30" viewBox="0 0 30 30" fill="none" xmlns="http://www.w3.org/2000/svg">
<path d="M15 25.5C16.6569 25.5 18 24.1569 18 22.5C18 20.8431 16.6569 19.5 15 19.5C13.3431 19.5 12 20.8431 12 22.5C12 24.1569 13.3431 25.5 15 25.5Z" fill="#D8D8D8"/>
<path d="M15 18C16.6569 18 18 16.6569 18 15C18 13.3431 16.6569 12 15 12C13.3431 12 12 13.3431 12 15C12 16.6569 13.3431 18 15 18Z" fill="#D8D8D8"/>
<path d="M15 10.5C16.6569 10.5 18 9.15685 18 7.5C18 5.84315 16.6569 4.5 15 4.5C13.3431 4.5 12 5.84315 12 7.5C12 9.15685 13.3431 10.5 15 10.5Z" fill="#D8D8D8"/>
</svg>
