<svg width="452" height="212" viewBox="0 0 452 212" fill="none" xmlns="http://www.w3.org/2000/svg">
<g filter="url(#filter0_d_186_4)">
<rect x="6" y="1" width="440" height="200" rx="12" fill="#24233C"/>
</g>
<mask id="mask0_186_4" style="mask-type:luminance" maskUnits="userSpaceOnUse" x="6" y="1" width="440" height="200">
<rect x="6" y="1" width="440" height="200" rx="12" fill="white"/>
</mask>
<g mask="url(#mask0_186_4)">
<ellipse cx="371.27" cy="83.6922" rx="157.143" ry="144.231" fill="url(#paint0_linear_186_4)"/>
<path fill-rule="evenodd" clip-rule="evenodd" d="M378.46 72.3331C385.5 67.0621 395.52 70.2289 397.532 78.3604L441.186 254.815C443.428 263.877 434.232 272.13 425.106 269.246L228.689 207.171C219.563 204.287 217.853 192.587 225.698 186.713L378.46 72.3331Z" fill="url(#paint1_linear_186_4)"/>
</g>
<rect x="37" y="43.1687" width="44.6984" height="27.7108" rx="3" fill="url(#paint2_linear_186_4)"/>
<rect x="37" y="61.6426" width="44.6984" height="0.769746" fill="#313131"/>
<rect x="37" y="52.4058" width="44.6984" height="0.769746" fill="#313131"/>
<rect x="70.524" y="43.1687" width="0.698413" height="9.23695" fill="#313131"/>
<rect x="55.1584" y="49.3264" width="8.38095" height="16.9344" rx="3" fill="url(#paint3_linear_186_4)" stroke="#313131" stroke-width="0.5"/>
<path d="M338.4 173V158.6H339.75L345.41 170.71L351.04 158.6H352.41V172.99H351.01V161.88L345.88 173H344.93L339.81 161.88V173H338.4ZM360.916 173.3C359.923 173.3 359.083 173.05 358.396 172.55C357.71 172.043 357.19 171.36 356.836 170.5C356.483 169.633 356.306 168.663 356.306 167.59C356.306 166.497 356.483 165.523 356.836 164.67C357.196 163.81 357.723 163.133 358.416 162.64C359.11 162.147 359.963 161.9 360.976 161.9C361.963 161.9 362.81 162.15 363.516 162.65C364.223 163.15 364.763 163.83 365.136 164.69C365.516 165.55 365.706 166.517 365.706 167.59C365.706 168.67 365.516 169.64 365.136 170.5C364.756 171.36 364.21 172.043 363.496 172.55C362.783 173.05 361.923 173.3 360.916 173.3ZM356.056 177.8V162.2H357.376V170.33H357.536V177.8H356.056ZM360.766 171.93C361.52 171.93 362.146 171.74 362.646 171.36C363.146 170.98 363.52 170.463 363.766 169.81C364.02 169.15 364.146 168.41 364.146 167.59C364.146 166.777 364.023 166.043 363.776 165.39C363.53 164.737 363.153 164.22 362.646 163.84C362.146 163.46 361.51 163.27 360.736 163.27C359.983 163.27 359.356 163.453 358.856 163.82C358.363 164.187 357.993 164.697 357.746 165.35C357.5 165.997 357.376 166.743 357.376 167.59C357.376 168.423 357.5 169.17 357.746 169.83C357.993 170.483 358.366 170.997 358.866 171.37C359.366 171.743 360 171.93 360.766 171.93ZM373.322 173.3C372.269 173.3 371.356 173.067 370.582 172.6C369.816 172.133 369.219 171.477 368.792 170.63C368.366 169.783 368.152 168.79 368.152 167.65C368.152 166.47 368.362 165.45 368.782 164.59C369.202 163.73 369.792 163.067 370.552 162.6C371.319 162.133 372.222 161.9 373.262 161.9C374.329 161.9 375.239 162.147 375.992 162.64C376.746 163.127 377.316 163.827 377.702 164.74C378.089 165.653 378.266 166.743 378.232 168.01H376.732V167.49C376.706 166.09 376.402 165.033 375.822 164.32C375.249 163.607 374.409 163.25 373.302 163.25C372.142 163.25 371.252 163.627 370.632 164.38C370.019 165.133 369.712 166.207 369.712 167.6C369.712 168.96 370.019 170.017 370.632 170.77C371.252 171.517 372.129 171.89 373.262 171.89C374.036 171.89 374.709 171.713 375.282 171.36C375.862 171 376.319 170.483 376.652 169.81L378.022 170.34C377.596 171.28 376.966 172.01 376.132 172.53C375.306 173.043 374.369 173.3 373.322 173.3ZM369.192 168.01V166.78H377.442V168.01H369.192ZM385.332 173.29C384.065 173.29 383.022 173.017 382.202 172.47C381.388 171.923 380.888 171.163 380.702 170.19L382.202 169.94C382.362 170.553 382.725 171.043 383.292 171.41C383.865 171.77 384.572 171.95 385.412 171.95C386.232 171.95 386.878 171.78 387.352 171.44C387.825 171.093 388.062 170.623 388.062 170.03C388.062 169.697 387.985 169.427 387.832 169.22C387.685 169.007 387.382 168.81 386.922 168.63C386.462 168.45 385.775 168.237 384.862 167.99C383.882 167.723 383.115 167.457 382.562 167.19C382.008 166.923 381.615 166.617 381.382 166.27C381.148 165.917 381.032 165.487 381.032 164.98C381.032 164.367 381.205 163.83 381.552 163.37C381.898 162.903 382.378 162.543 382.992 162.29C383.605 162.03 384.318 161.9 385.132 161.9C385.945 161.9 386.672 162.033 387.312 162.3C387.958 162.56 388.478 162.927 388.872 163.4C389.265 163.873 389.498 164.423 389.572 165.05L388.072 165.32C387.972 164.687 387.655 164.187 387.122 163.82C386.595 163.447 385.925 163.253 385.112 163.24C384.345 163.22 383.722 163.367 383.242 163.68C382.762 163.987 382.522 164.397 382.522 164.91C382.522 165.197 382.608 165.443 382.782 165.65C382.955 165.85 383.268 166.04 383.722 166.22C384.182 166.4 384.835 166.597 385.682 166.81C386.675 167.063 387.455 167.33 388.022 167.61C388.588 167.89 388.992 168.22 389.232 168.6C389.472 168.98 389.592 169.45 389.592 170.01C389.592 171.03 389.212 171.833 388.452 172.42C387.698 173 386.658 173.29 385.332 173.29ZM395.749 173.3C394.936 173.3 394.253 173.153 393.699 172.86C393.153 172.567 392.743 172.177 392.469 171.69C392.196 171.203 392.059 170.673 392.059 170.1C392.059 169.513 392.176 169.013 392.409 168.6C392.649 168.18 392.973 167.837 393.379 167.57C393.793 167.303 394.269 167.1 394.809 166.96C395.356 166.827 395.959 166.71 396.619 166.61C397.286 166.503 397.936 166.413 398.569 166.34C399.209 166.26 399.769 166.183 400.249 166.11L399.729 166.43C399.749 165.363 399.543 164.573 399.109 164.06C398.676 163.547 397.923 163.29 396.849 163.29C396.109 163.29 395.483 163.457 394.969 163.79C394.463 164.123 394.106 164.65 393.899 165.37L392.469 164.95C392.716 163.983 393.213 163.233 393.959 162.7C394.706 162.167 395.676 161.9 396.869 161.9C397.856 161.9 398.693 162.087 399.379 162.46C400.073 162.827 400.563 163.36 400.849 164.06C400.983 164.373 401.069 164.723 401.109 165.11C401.149 165.497 401.169 165.89 401.169 166.29V173H399.859V170.29L400.239 170.45C399.873 171.377 399.303 172.083 398.529 172.57C397.756 173.057 396.829 173.3 395.749 173.3ZM395.919 172.03C396.606 172.03 397.206 171.907 397.719 171.66C398.233 171.413 398.646 171.077 398.959 170.65C399.273 170.217 399.476 169.73 399.569 169.19C399.649 168.843 399.693 168.463 399.699 168.05C399.706 167.63 399.709 167.317 399.709 167.11L400.269 167.4C399.769 167.467 399.226 167.533 398.639 167.6C398.059 167.667 397.486 167.743 396.919 167.83C396.359 167.917 395.853 168.02 395.399 168.14C395.093 168.227 394.796 168.35 394.509 168.51C394.223 168.663 393.986 168.87 393.799 169.13C393.619 169.39 393.529 169.713 393.529 170.1C393.529 170.413 393.606 170.717 393.759 171.01C393.919 171.303 394.173 171.547 394.519 171.74C394.873 171.933 395.339 172.03 395.919 172.03Z" fill="white"/>
<defs>
<filter id="filter0_d_186_4" x="0" y="0" width="452" height="212" filterUnits="userSpaceOnUse" color-interpolation-filters="sRGB">
<feFlood flood-opacity="0" result="BackgroundImageFix"/>
<feColorMatrix in="SourceAlpha" type="matrix" values="0 0 0 0 0 0 0 0 0 0 0 0 0 0 0 0 0 0 127 0" result="hardAlpha"/>
<feOffset dy="5"/>
<feGaussianBlur stdDeviation="3"/>
<feColorMatrix type="matrix" values="0 0 0 0 0.5488 0 0 0 0 0.555893 0 0 0 0 0.56 0 0 0 0.11 0"/>
<feBlend mode="normal" in2="BackgroundImageFix" result="effect1_dropShadow_186_4"/>
<feBlend mode="normal" in="SourceGraphic" in2="effect1_dropShadow_186_4" result="shape"/>
</filter>
<linearGradient id="paint0_linear_186_4" x1="185.879" y1="127.816" x2="345.474" y2="234.959" gradientUnits="userSpaceOnUse">
<stop stop-color="#F1F3F5" stop-opacity="0.15"/>
<stop offset="1" stop-color="#DFE3E8" stop-opacity="0.01"/>
</linearGradient>
<linearGradient id="paint1_linear_186_4" x1="208.928" y1="132.225" x2="281.475" y2="251.084" gradientUnits="userSpaceOnUse">
<stop stop-color="#F1F3F5" stop-opacity="0.15"/>
<stop offset="1" stop-color="#DFE3E8" stop-opacity="0.01"/>
</linearGradient>
<linearGradient id="paint2_linear_186_4" x1="37" y1="43.1687" x2="37" y2="70.8795" gradientUnits="userSpaceOnUse">
<stop stop-color="#EDEDED"/>
<stop offset="1" stop-color="#C7C8CC"/>
</linearGradient>
<linearGradient id="paint3_linear_186_4" x1="55.1584" y1="49.3264" x2="55.1584" y2="66.2608" gradientUnits="userSpaceOnUse">
<stop stop-color="#EDEDED"/>
<stop offset="1" stop-color="#C7C8CC"/>
</linearGradient>
</defs>
</svg>
