<svg width="24" height="24" viewBox="0 0 24 24" fill="none" xmlns="http://www.w3.org/2000/svg">
<path d="M22.7955 2.89581L23.6472 2.05613C23.8731 1.83025 24 1.52389 24 1.20445C24 0.885011 23.8731 0.578654 23.6472 0.352776C23.4213 0.126897 23.115 0 22.7955 0C22.4761 0 22.1698 0.126897 21.9439 0.352776L20.2645 2.04413L16.8698 5.43884L9.30068 12.996C8.0604 12.1777 6.56053 11.8489 5.09168 12.0734C3.62284 12.2979 2.28961 13.0596 1.35033 14.2109C0.411045 15.3623 -0.0674111 16.8213 0.0076664 18.3053C0.0827439 19.7893 0.70601 21.1926 1.7567 22.2433C2.80738 23.294 4.21068 23.9173 5.69468 23.9923C7.17868 24.0674 8.63771 23.589 9.78907 22.6497C10.9404 21.7104 11.7021 20.3772 11.9266 18.9083C12.1511 17.4395 11.8223 15.9396 11.004 14.6993L17.7095 7.98187L20.2525 10.5369C20.3644 10.648 20.497 10.7359 20.6428 10.7957C20.7886 10.8555 20.9448 10.886 21.1024 10.8854C21.26 10.8849 21.416 10.8533 21.5614 10.7925C21.7068 10.7316 21.8388 10.6427 21.9499 10.5309C22.0609 10.4191 22.1489 10.2864 22.2087 10.1406C22.2685 9.99478 22.299 9.8386 22.2984 9.68099C22.2978 9.52337 22.2663 9.36741 22.2054 9.22201C22.1446 9.0766 22.0557 8.94461 21.9439 8.83355L19.4008 6.29052L21.1042 4.59916L21.9439 5.43884C22.0549 5.55069 22.1869 5.63956 22.3323 5.70039C22.4777 5.76122 22.6337 5.79282 22.7913 5.79337C22.9489 5.79393 23.1051 5.76344 23.2509 5.70364C23.3968 5.64384 23.5294 5.5559 23.6412 5.44484C23.7531 5.33378 23.8419 5.20179 23.9028 5.05638C23.9636 4.91098 23.9952 4.75502 23.9958 4.5974C23.9963 4.43979 23.9658 4.28361 23.906 4.13778C23.8462 3.99195 23.7583 3.85933 23.6472 3.74748L22.7955 2.89581ZM6.00193 21.5967C5.29019 21.5967 4.59443 21.3856 4.00264 20.9902C3.41085 20.5948 2.9496 20.0328 2.67723 19.3752C2.40486 18.7176 2.3336 17.9941 2.47245 17.296C2.6113 16.5979 2.95404 15.9567 3.45732 15.4534C3.9606 14.9502 4.60181 14.6074 5.29988 14.4686C5.99794 14.3297 6.72151 14.401 7.37907 14.6734C8.03664 14.9457 8.59866 15.407 8.99409 15.9988C9.38951 16.5906 9.60057 17.2863 9.60057 17.9981C9.60057 18.9525 9.22143 19.8678 8.54655 20.5427C7.87168 21.2176 6.95635 21.5967 6.00193 21.5967Z" fill="#696974" fill-opacity="0.78"/>
</svg>
