<svg width="30" height="30" viewBox="0 0 30 30" fill="none" xmlns="http://www.w3.org/2000/svg">
<path d="M5 2.5H25C26.375 2.5 27.5 3.625 27.5 5V12.5H12.5V25H18.1875C18.4125 25.375 18.6375 25.725 18.8625 26.05C19.225 26.5875 19.575 27.075 19.9 27.5H5C3.625 27.5 2.5 26.375 2.5 25V5C2.5 3.625 3.625 2.5 5 2.5ZM10 5H5V17.5H10V5ZM5 20V25H10V20H5ZM12.5 10H25V5H12.5V10ZM23.125 27.5C23.125 27.5 22.4 26.6875 21.5375 25.5125C21.425 25.35 21.3 25.175 21.175 25C20 23.325 18.75 21.1125 18.75 19.375C18.75 17 20.75 15 23.125 15C23.7875 15 24.425 15.1625 25 15.4375C26.4625 16.15 27.5 17.6625 27.5 19.375C27.5 21.3 25.9625 23.8 24.7125 25.5125C23.85 26.6875 23.125 27.5 23.125 27.5ZM21.625 19.5C21.625 20.25 22.25 21 23.125 21C24 21 24.75 20.25 24.625 19.5C24.625 18.75 23.875 18 23.125 18C22.375 18 21.625 18.625 21.625 19.5Z" fill="#696974"/>
</svg>
