<svg width="24" height="24" viewBox="0 0 24 24" fill="none" xmlns="http://www.w3.org/2000/svg">
<g clip-path="url(#clip0_1_1699)">
<path d="M22.0661 21.31C22.0661 20.3529 20.3198 17.6779 20.3198 17.6779C20.3198 17.6779 18.5472 20.3529 18.5472 21.31C18.5472 22.2652 19.3353 23.04 20.3069 23.04C21.2779 23.04 22.0661 22.2652 22.0661 21.31ZM9.43966 6.32204H5.92078V2.85308H6.8803V0.959961H0.47998V2.85308H1.43998V8.21468C1.43998 9.6086 2.58622 10.738 3.99982 10.738H9.43966V11.6846H11.3601V5.37644H9.43966V6.32204ZM22.559 14.2075V8.84588C22.559 7.45244 21.4133 6.32252 20.0011 6.32252H14.5603V5.37692H12.6398V11.6856H14.5603V10.7385H18.0797V14.2075H17.1211V16.1006H23.52V14.2075H22.559Z" fill="#24233C"/>
</g>
<defs>
<clipPath id="clip0_1_1699">
<rect width="24" height="24" fill="white"/>
</clipPath>
</defs>
</svg>
