<svg width="24" height="24" viewBox="0 0 24 24" fill="none" xmlns="http://www.w3.org/2000/svg">
<g clip-path="url(#clip0_1_1883)">
<path d="M11.3159 0.984375L10.6025 2.61328C10.2332 2.63582 9.86572 2.68232 9.50245 2.7525L8.41111 1.34325L7.23483 1.74319L7.22897 3.53616C6.73069 3.79228 6.25317 4.10194 5.80209 4.46334L4.13967 3.71484L3.28856 4.62014L4.13962 6.23438C3.8681 6.62146 3.62948 7.03061 3.42628 7.45753L1.60106 7.50731L1.23047 8.69231L2.70412 9.77784C2.63358 10.2175 2.59912 10.6618 2.59716 11.1065L0.960938 11.9355L1.13231 13.166L2.92823 13.5176C3.03559 13.8935 3.16872 14.2615 3.32667 14.6191L2.14312 16.0884L2.80373 17.1401L4.64358 16.7095C4.76 16.8465 4.88065 16.9798 5.00536 17.1093C5.26583 17.3787 5.54327 17.6312 5.83598 17.8652L5.47856 19.708L6.55378 20.3291L7.95853 19.1059C8.36049 19.2675 8.77433 19.3978 9.19636 19.4955L9.65489 21.2958L10.8926 21.3969L11.6368 19.6991C12.151 19.6682 12.6635 19.5913 13.1675 19.4677L14.3497 20.8373L15.5025 20.3759L15.4687 19.6815L12.7778 17.6411C11.9945 17.8391 11.1821 17.8921 10.3843 17.8021C8.8958 17.6343 7.46536 16.9621 6.3428 15.8012C3.77695 13.1475 3.85031 8.92608 6.50395 6.36033C7.78927 5.11753 9.44255 4.48706 11.0977 4.4692C12.8597 4.45017 14.6234 5.12527 15.9464 6.49359C18.0996 8.72072 18.393 12.071 16.8633 14.6074L18.3619 15.7441C18.5482 15.452 18.7165 15.1487 18.8658 14.8359L20.6778 14.7861L21.0484 13.6011L19.5851 12.523C19.6557 12.0797 19.6914 11.6315 19.692 11.1826L21.318 10.3565L21.1466 9.126L19.3522 8.77444C19.2013 8.25466 19.0011 7.75043 18.7546 7.26858L19.8238 5.78761L19.109 4.77244L17.3483 5.28366C17.3262 5.26022 17.3047 5.23645 17.2823 5.21334C17.0052 4.9266 16.7086 4.65934 16.3947 4.41347L16.7316 2.67323L15.6562 2.05219L14.3203 3.21534C13.8878 3.0413 13.4437 2.90583 12.9931 2.80519L12.5552 1.08544L11.3159 0.984375ZM8.58984 8.17969C8.10497 8.18522 7.62436 8.30428 7.18359 8.52094L9.30328 10.1294C9.94434 10.6158 10.1262 11.5401 9.63422 12.189C9.14212 12.8382 8.19722 12.9358 7.54687 12.4425L5.42869 10.8355C5.2118 11.9977 5.62252 13.2291 6.62841 13.9922C7.53052 14.6765 8.68828 14.8046 9.68559 14.4464L9.90966 14.3657L10.0986 14.5093L16.4356 19.317L16.6245 19.4605L16.6084 19.6979C16.5316 20.7549 16.9642 21.8358 17.8667 22.5205C18.8726 23.2837 20.1704 23.3469 21.2314 22.8252L19.1133 21.2183C18.4629 20.7249 18.3032 19.7884 18.7955 19.1397C19.2877 18.491 20.2269 18.4176 20.8681 18.9038L22.9863 20.5109C23.2027 19.3491 22.7937 18.1171 21.7881 17.3541C20.8828 16.667 19.7341 16.5309 18.7427 16.8838L18.52 16.9629L18.3311 16.8194L11.9941 12.0118L11.8052 11.8682L11.8213 11.6324C11.894 10.583 11.4533 9.51394 10.5483 8.82717C9.96033 8.38111 9.2723 8.17195 8.58989 8.17974L8.58984 8.17969ZM10.6319 12.4102L18.3135 18.2388L17.7847 18.9375L10.1016 13.1074L10.6319 12.4102Z" fill="#24233C"/>
</g>
<defs>
<clipPath id="clip0_1_1883">
<rect width="24" height="24" fill="white"/>
</clipPath>
</defs>
</svg>
