<svg width="24" height="24" viewBox="0 0 24 24" fill="none" xmlns="http://www.w3.org/2000/svg">
<path d="M3.03024 13.078C2.86922 12.7413 2.78564 12.3728 2.78564 11.9995C2.78564 11.6263 2.86922 11.2578 3.03024 10.921C3.17024 10.627 3.41024 10.345 3.89024 9.78102C4.08224 9.55602 4.17824 9.44402 4.25824 9.32402C4.4423 9.04951 4.57009 8.74124 4.63424 8.41702C4.66224 8.27502 4.67424 8.12802 4.69724 7.83402C4.75624 7.09602 4.78524 6.72702 4.89424 6.41802C5.01873 6.0662 5.22039 5.74672 5.48445 5.48301C5.74851 5.21929 6.06826 5.01804 6.42024 4.89402C6.72824 4.78502 7.09724 4.75502 7.83624 4.69702C8.13024 4.67302 8.27624 4.66102 8.41824 4.63302C8.74281 4.569 9.05143 4.4412 9.32624 4.25702C9.44624 4.17702 9.55824 4.08202 9.78224 3.89002C10.3462 3.41002 10.6282 3.17002 10.9222 3.02902C11.259 2.868 11.6275 2.78442 12.0007 2.78442C12.374 2.78442 12.7425 2.868 13.0792 3.02902C13.3742 3.16902 13.6562 3.40902 14.2192 3.89002C14.4442 4.08202 14.5562 4.17702 14.6762 4.25702C14.9511 4.4412 15.2597 4.569 15.5842 4.63302C15.7252 4.66102 15.8722 4.67302 16.1662 4.69702C16.9052 4.75502 17.2742 4.78502 17.5822 4.89402C17.934 5.01817 18.2536 5.21948 18.5175 5.48318C18.7813 5.74689 18.9829 6.06631 19.1072 6.41802M4.89424 17.581C5.01862 17.9327 5.22014 18.2522 5.48402 18.5159C5.7479 18.7796 6.06745 18.9809 6.41924 19.105C6.72724 19.215 7.09624 19.244 7.83524 19.302C8.12924 19.326 8.27524 19.338 8.41724 19.366C8.74181 19.43 9.05043 19.5578 9.32524 19.742C9.44524 19.822 9.55724 19.917 9.78124 20.109C10.3452 20.589 10.6272 20.829 10.9212 20.97C11.258 21.131 11.6265 21.2146 11.9997 21.2146C12.373 21.2146 12.7415 21.131 13.0782 20.97C13.3732 20.83 13.6552 20.59 14.2182 20.109C14.3636 19.9783 14.5162 19.8558 14.6752 19.742C14.9501 19.5578 15.2587 19.43 15.5832 19.366C15.7242 19.338 15.8712 19.326 16.1652 19.302C16.9042 19.244 17.2732 19.214 17.5812 19.105C17.933 18.9809 18.2526 18.7796 18.5165 18.5159C18.7803 18.2522 18.9819 17.9327 19.1062 17.581C19.2152 17.273 19.2442 16.903 19.3032 16.165C19.3262 15.871 19.3382 15.724 19.3662 15.582C19.4302 15.258 19.5582 14.949 19.7422 14.675C19.8222 14.555 19.9182 14.443 20.1092 14.218C20.5892 13.654 20.8302 13.372 20.9712 13.078C21.1323 12.7413 21.2158 12.3728 21.2158 11.9995C21.2158 11.6263 21.1323 11.2578 20.9712 10.921M9.00024 15L15.0002 9.00002" stroke="#696974" stroke-width="1.5" stroke-linecap="round"/>
<path d="M15.5 14.5C15.5 14.7652 15.3946 15.0196 15.2071 15.2071C15.0196 15.3946 14.7652 15.5 14.5 15.5C14.2348 15.5 13.9804 15.3946 13.7929 15.2071C13.6054 15.0196 13.5 14.7652 13.5 14.5C13.5 14.2348 13.6054 13.9804 13.7929 13.7929C13.9804 13.6054 14.2348 13.5 14.5 13.5C14.7652 13.5 15.0196 13.6054 15.2071 13.7929C15.3946 13.9804 15.5 14.2348 15.5 14.5ZM10.5 9.5C10.5 9.76522 10.3946 10.0196 10.2071 10.2071C10.0196 10.3946 9.76522 10.5 9.5 10.5C9.23478 10.5 8.98043 10.3946 8.79289 10.2071C8.60536 10.0196 8.5 9.76522 8.5 9.5C8.5 9.23478 8.60536 8.98043 8.79289 8.79289C8.98043 8.60536 9.23478 8.5 9.5 8.5C9.76522 8.5 10.0196 8.60536 10.2071 8.79289C10.3946 8.98043 10.5 9.23478 10.5 9.5Z" fill="#696974"/>
</svg>
