<svg width="24" height="20" viewBox="0 0 24 20" fill="none" xmlns="http://www.w3.org/2000/svg">
<path d="M7.57023 4.54214H3.02809V0H7.57023V4.54214ZM13.6264 4.54214H9.08428V0H13.6264V4.54214ZM12.1124 1.51405H10.5983V3.02809H12.1124V1.51405ZM19.6826 4.54214H15.1405V0H19.6826V4.54214ZM18.1686 1.51405H16.6545V3.02809H18.1686V1.51405ZM16.6545 10.5983C16.6545 10.3854 16.6939 10.1883 16.7728 10.0069C16.8517 9.82553 16.9581 9.66782 17.0922 9.53376C17.2262 9.3997 17.3879 9.2893 17.5771 9.20256C17.7664 9.11582 17.9635 9.07639 18.1686 9.08428C18.3815 9.08428 18.5786 9.12371 18.76 9.20256C18.9414 9.28142 19.0991 9.38788 19.2331 9.52193C19.3672 9.65599 19.4776 9.81764 19.5643 10.0069C19.6511 10.1962 19.6905 10.3933 19.6826 10.5983C19.6826 10.8112 19.6432 11.0084 19.5643 11.1897C19.4855 11.3711 19.379 11.5288 19.2449 11.6629C19.1109 11.7969 18.9492 11.9073 18.76 11.9941C18.5707 12.0808 18.3736 12.1203 18.1686 12.1124C17.9556 12.1124 17.7585 12.0729 17.5771 11.9941C17.3958 11.9152 17.238 11.8088 17.104 11.6747C16.9699 11.5407 16.8595 11.379 16.7728 11.1897C16.6861 11.0005 16.6466 10.8034 16.6545 10.5983ZM3.02809 10.5983C3.02809 10.3854 3.06752 10.1883 3.14638 10.0069C3.22523 9.82553 3.33169 9.66782 3.46575 9.53376C3.5998 9.3997 3.76146 9.2893 3.95071 9.20256C4.13997 9.11582 4.33711 9.07639 4.54214 9.08428C4.75505 9.08428 4.95219 9.12371 5.13356 9.20256C5.31493 9.28142 5.47265 9.38788 5.6067 9.52193C5.74076 9.65599 5.85116 9.81764 5.9379 10.0069C6.02464 10.1962 6.06407 10.3933 6.05619 10.5983C6.05619 10.8112 6.01676 11.0084 5.9379 11.1897C5.85904 11.3711 5.75259 11.5288 5.61853 11.6629C5.48448 11.7969 5.32282 11.9073 5.13356 11.9941C4.94431 12.0808 4.74717 12.1203 4.54214 12.1124C4.32923 12.1124 4.13208 12.0729 3.95071 11.9941C3.76934 11.9152 3.61163 11.8088 3.47758 11.6747C3.34352 11.5407 3.23312 11.379 3.14638 11.1897C3.05964 11.0005 3.02021 10.8034 3.02809 10.5983ZM7.57023 10.5983C7.57023 10.3854 7.60966 10.1883 7.68852 10.0069C7.76737 9.82553 7.87383 9.66782 8.00789 9.53376C8.14194 9.3997 8.3036 9.2893 8.49285 9.20256C8.68211 9.11582 8.87925 9.07639 9.08428 9.08428C9.29719 9.08428 9.49433 9.12371 9.6757 9.20256C9.85707 9.28142 10.0148 9.38788 10.1488 9.52193C10.2829 9.65599 10.3933 9.81764 10.48 10.0069C10.5668 10.1962 10.6062 10.3933 10.5983 10.5983C10.5983 10.8112 10.5589 11.0084 10.48 11.1897C10.4012 11.3711 10.2947 11.5288 10.1607 11.6629C10.0266 11.7969 9.86496 11.9073 9.6757 11.9941C9.48645 12.0808 9.2893 12.1203 9.08428 12.1124C8.87137 12.1124 8.67422 12.0729 8.49285 11.9941C8.31148 11.9152 8.15377 11.8088 8.01971 11.6747C7.88566 11.5407 7.77526 11.379 7.68852 11.1897C7.60177 11.0005 7.56235 10.8034 7.57023 10.5983ZM15.1405 10.5983C15.1405 10.8112 15.101 11.0084 15.0222 11.1897C14.9433 11.3711 14.8369 11.5288 14.7028 11.6629C14.5688 11.7969 14.4071 11.9073 14.2178 11.9941C14.0286 12.0808 13.8314 12.1203 13.6264 12.1124C13.4135 12.1124 13.2164 12.0729 13.035 11.9941C12.8536 11.9152 12.6959 11.8088 12.5619 11.6747C12.4278 11.5407 12.3174 11.379 12.2307 11.1897C12.1439 11.0005 12.1045 10.8034 12.1124 10.5983C12.1124 10.3854 12.1518 10.1883 12.2307 10.0069C12.3095 9.82553 12.416 9.66782 12.55 9.53376C12.6841 9.3997 12.8457 9.2893 13.035 9.20256C13.2242 9.11582 13.4214 9.07639 13.6264 9.08428C13.8393 9.08428 14.0365 9.12371 14.2178 9.20256C14.3992 9.28142 14.5569 9.38788 14.691 9.52193C14.825 9.65599 14.9354 9.81764 15.0222 10.0069C15.1089 10.1962 15.1483 10.3933 15.1405 10.5983ZM1.51405 10.5983C1.51405 11.0163 1.5929 11.4066 1.75062 11.7693C1.90833 12.1321 2.12518 12.4554 2.40118 12.7393C2.67718 13.0232 2.99655 13.24 3.35929 13.3898C3.72203 13.5397 4.11631 13.6185 4.54214 13.6264H12.1124V15.1405H4.54214C3.91917 15.1405 3.33169 15.0222 2.77969 14.7856C2.2277 14.549 1.74667 14.2218 1.33662 13.8038C0.926565 13.3859 0.603253 12.9049 0.366683 12.3608C0.130113 11.8167 0.00788566 11.2292 0 10.5983C0 9.97536 0.118285 9.38788 0.354855 8.83588C0.591424 8.28388 0.918679 7.80286 1.33662 7.3928C1.75456 6.98275 2.23558 6.65944 2.77969 6.42287C3.3238 6.1863 3.91129 6.06407 4.54214 6.05619H18.1686C18.7284 6.05619 19.2607 6.15476 19.7654 6.3519C20.2701 6.54904 20.7196 6.81715 21.1138 7.15623C21.5081 7.49532 21.8393 7.90143 22.1074 8.37457C22.3756 8.84771 22.553 9.36028 22.6397 9.91227L21.0429 11.5091C21.0902 11.3593 21.1257 11.2095 21.1493 11.0596C21.173 10.9098 21.1888 10.756 21.1966 10.5983C21.1966 10.1804 21.1178 9.79004 20.9601 9.4273C20.8024 9.06456 20.5855 8.74125 20.3095 8.45737C20.0335 8.17348 19.7141 7.95663 19.3514 7.8068C18.9887 7.65697 18.5944 7.57812 18.1686 7.57023H4.54214C4.1242 7.57023 3.73386 7.64909 3.37112 7.8068C3.00838 7.96451 2.68507 8.18137 2.40118 8.45737C2.1173 8.73337 1.90044 9.05274 1.75062 9.41548C1.60079 9.77822 1.52193 10.1725 1.51405 10.5983ZM24 12.6447L17.4115 19.2449L14.2297 16.0513L15.2942 14.9867L17.4115 17.0922L22.9354 11.5801L24 12.6447Z" fill="#696974"/>
</svg>
