<svg width="24" height="24" viewBox="0 0 24 24" fill="none" xmlns="http://www.w3.org/2000/svg">
<path d="M12.0001 8C13.061 8 14.0784 8.42143 14.8286 9.17157C15.5787 9.92172 16.0001 10.9391 16.0001 12C16.0001 13.0609 15.5787 14.0783 14.8286 14.8284C14.0784 15.5786 13.061 16 12.0001 16C10.9393 16 9.92185 15.5786 9.17171 14.8284C8.42156 14.0783 8.00014 13.0609 8.00014 12C8.00014 10.9391 8.42156 9.92172 9.17171 9.17157C9.92185 8.42143 10.9393 8 12.0001 8ZM12.0001 10C11.4697 10 10.961 10.2107 10.5859 10.5858C10.2109 10.9609 10.0001 11.4696 10.0001 12C10.0001 12.5304 10.2109 13.0391 10.5859 13.4142C10.961 13.7893 11.4697 14 12.0001 14C12.5306 14 13.0393 13.7893 13.4143 13.4142C13.7894 13.0391 14.0001 12.5304 14.0001 12C14.0001 11.4696 13.7894 10.9609 13.4143 10.5858C13.0393 10.2107 12.5306 10 12.0001 10ZM10.0001 22C9.75014 22 9.54014 21.82 9.50014 21.58L9.13014 18.93C8.50014 18.68 7.96014 18.34 7.44014 17.94L4.95014 18.95C4.73014 19.03 4.46014 18.95 4.34014 18.73L2.34014 15.27C2.27893 15.167 2.25736 15.0452 2.27944 14.9274C2.30153 14.8096 2.36576 14.7039 2.46014 14.63L4.57014 12.97L4.50014 12L4.57014 11L2.46014 9.37C2.36576 9.29613 2.30153 9.19042 2.27944 9.07263C2.25736 8.95484 2.27893 8.83304 2.34014 8.73L4.34014 5.27C4.46014 5.05 4.73014 4.96 4.95014 5.05L7.44014 6.05C7.96014 5.66 8.50014 5.32 9.13014 5.07L9.50014 2.42C9.54014 2.18 9.75014 2 10.0001 2H14.0001C14.2501 2 14.4601 2.18 14.5001 2.42L14.8701 5.07C15.5001 5.32 16.0401 5.66 16.5601 6.05L19.0501 5.05C19.2701 4.96 19.5401 5.05 19.6601 5.27L21.6601 8.73C21.7901 8.95 21.7301 9.22 21.5401 9.37L19.4301 11L19.5001 12L19.4301 13L21.5401 14.63C21.7301 14.78 21.7901 15.05 21.6601 15.27L19.6601 18.73C19.5401 18.95 19.2701 19.04 19.0501 18.95L16.5601 17.95C16.0401 18.34 15.5001 18.68 14.8701 18.93L14.5001 21.58C14.4601 21.82 14.2501 22 14.0001 22H10.0001ZM11.2501 4L10.8801 6.61C9.68014 6.86 8.62014 7.5 7.85014 8.39L5.44014 7.35L4.69014 8.65L6.80014 10.2C6.40014 11.3667 6.40014 12.6333 6.80014 13.8L4.68014 15.36L5.43014 16.66L7.86014 15.62C8.63014 16.5 9.68014 17.14 10.8701 17.38L11.2401 20H12.7601L13.1301 17.39C14.3201 17.14 15.3701 16.5 16.1401 15.62L18.5701 16.66L19.3201 15.36L17.2001 13.81C17.6001 12.64 17.6001 11.37 17.2001 10.2L19.3101 8.65L18.5601 7.35L16.1501 8.39C15.3644 7.48032 14.2985 6.85767 13.1201 6.62L12.7501 4H11.2501Z" fill="#696974"/>
</svg>
