<svg width="100" height="152" viewBox="0 0 100 152" fill="none" xmlns="http://www.w3.org/2000/svg">
<path d="M91.8218 99.0183H61.0918V147.778H91.8218V99.0183Z" fill="#B2B2B2"/>
<path d="M61.2114 99.0183H30.4814V147.778H61.2114V99.0183Z" fill="#D1D1D1"/>
<path d="M45.1116 39.8882L43.8016 66.0982L37.6416 85.3182H48.7316L54.4916 68.7582L56.2916 49.9382L45.1116 39.8882Z" fill="#0064FF"/>
<path d="M44.8021 131.498L47.0321 141.888L39.5421 142.778L37.4121 132.548L44.8021 131.498Z" fill="#DAB8A2"/>
<path d="M47.4818 140.948C47.2918 140.388 46.6918 140.188 46.2818 140.548C45.4818 141.258 44.0418 142.128 41.9118 141.918C39.7018 141.698 38.8718 140.398 38.5518 139.458C38.3818 138.968 37.9118 138.718 37.4918 138.928L24.0818 145.668C23.2718 146.078 22.6318 146.838 22.3118 147.788C22.0118 148.678 22.6118 149.638 23.4518 149.618L46.6218 148.978C47.5318 148.958 48.2318 148.058 48.1518 147.018L47.7718 141.918C47.7618 141.838 47.7518 141.748 47.7218 141.668L47.4818 140.948Z" fill="#1F252A"/>
<path d="M44.6719 81.2582H27.2819C27.2819 81.2582 16.6919 80.6682 16.0619 89.3582C15.4319 98.0482 31.5919 122.908 34.1219 136.188L48.6619 134.988L38.1919 98.8782L64.2319 99.0282C66.1619 99.0382 68.0819 98.7582 69.9019 98.1282C74.9719 96.3682 82.7119 93.8482 78.4919 79.8882L44.6719 81.2582Z" fill="#1C1B33"/>
<path d="M58.0912 131.538L61.6312 143.958L54.1412 144.848L50.7012 132.588L58.0912 131.538Z" fill="#DAB8A2"/>
<path d="M62.0819 143.018C61.8919 142.458 61.2919 142.258 60.8819 142.618C60.0819 143.328 58.6419 144.198 56.5119 143.988C54.3019 143.768 53.4719 142.468 53.1519 141.528C52.9819 141.038 52.5119 140.788 52.0919 140.998L38.6819 147.738C37.8719 148.148 37.2319 148.908 36.9119 149.858C36.6119 150.748 37.2119 151.708 38.0519 151.688L61.6219 151.048C62.5319 151.028 63.2319 150.128 63.1519 149.088L62.3619 143.988C62.3519 143.908 62.3419 143.818 62.3119 143.738L62.0819 143.018Z" fill="#1F252A"/>
<path d="M65.4514 29.5881C65.8414 29.9681 83.2914 34.4181 83.2914 34.4181L79.5615 44.3281L60.4814 42.8881L65.4514 29.5881Z" fill="#0064FF"/>
<path d="M58.2513 31.9783C58.2513 31.9783 46.8813 36.1283 45.1113 39.8883C45.7213 45.1983 47.5913 50.3083 50.6713 54.6783C54.4513 60.0383 59.1214 69.2483 58.2614 81.2583H91.1313C91.1313 81.2583 89.3613 47.4683 79.6313 34.4983L58.2513 31.9783Z" fill="#0064FF"/>
<path d="M61.9817 37.3382C65.2117 36.6782 67.2917 33.5281 66.6317 30.2981L64.7017 20.8481L53.0117 23.2381L54.9417 32.6881C55.6017 35.9181 58.7517 37.9981 61.9817 37.3382Z" fill="#DAB8A2"/>
<path d="M65.5011 24.1482C65.5011 24.1482 64.2711 31.8082 58.3111 32.2682C53.0911 32.6682 53.591 25.1182 53.591 25.1182L65.5011 24.1482Z" fill="#F4BE9A"/>
<path d="M58.7813 28.0682L59.8113 27.8282C64.9813 26.6282 68.2013 21.4682 67.0013 16.3082L65.6413 10.4182C64.4413 5.2482 59.2813 2.0282 54.1213 3.2282L53.0913 3.4682C47.9213 4.6682 44.7013 9.8282 45.9013 14.9882L47.2613 20.8782C48.4613 26.0482 53.6213 29.2682 58.7813 28.0682Z" fill="#DAB8A2"/>
<path d="M63.7611 18.7583C63.5211 19.1683 63.2911 19.7883 63.2111 20.7283C63.1211 21.9183 62.5211 23.0483 61.5211 23.7083C58.6511 25.6083 56.4611 20.7983 52.2211 21.6483C52.2211 21.6483 50.5611 21.8983 50.2311 23.7483C49.9011 25.5883 47.5911 22.3683 47.0811 20.1683C46.5711 17.9683 46.3111 31.0583 56.7511 29.9483C56.7511 29.9483 62.0211 29.7783 65.5711 24.4083C65.9611 23.8183 66.1911 23.1283 66.2111 22.4183C66.2411 21.3683 66.0911 19.7783 65.0911 18.6383C64.7411 18.2183 64.0411 18.2783 63.7611 18.7583Z" fill="#1C2226"/>
<path d="M63.7715 15.7882C63.7715 15.7882 59.2615 14.2982 60.0215 7.7082C60.0215 7.7082 48.8215 18.3082 40.5215 10.5282C40.5215 10.5282 44.2315 9.5382 45.7615 6.9982C48.5515 2.3682 56.5715 -4.0118 62.9915 3.36821C62.9915 3.36821 70.8015 2.15821 68.5615 14.1882L63.7715 15.7882Z" fill="#1C2226"/>
<path d="M63.7718 15.7883C64.2018 17.6283 66.0418 18.7783 67.8818 18.3583C69.7318 17.9283 70.8718 16.0883 70.4518 14.2483C70.0218 12.4083 68.1818 11.2583 66.3418 11.6783C64.4918 12.1083 63.3418 13.9483 63.7718 15.7883Z" fill="#DAB8A2"/>
<path d="M58.0721 36.9683L62.902 37.0583L59.522 44.0583L55.8721 37.3483L58.0721 36.9683Z" fill="#24233C"/>
<path d="M67.0413 29.8983L60.8213 37.1583L64.8713 41.8083L72.3213 31.5683C72.3213 31.5683 70.4113 28.4983 67.0413 29.8983Z" fill="#FFF7F3"/>
<path d="M58.0717 36.9681L54.4917 41.0081L51.9717 34.7081C51.9717 34.7081 52.6317 31.8781 54.6917 32.4181L58.0717 36.9681Z" fill="#FFF7F3"/>
<path d="M59.3914 41.7983C59.3914 41.7983 54.7214 53.9783 55.8814 71.2583L60.4814 75.4583L65.8514 70.2883L60.0614 41.0083L59.3914 41.7983Z" fill="#24233C"/>
<path d="M68.1219 70.7183L58.1219 74.0083L57.4619 79.8783L70.7219 75.9183L68.1219 70.7183Z" fill="#DAB8A2"/>
<path d="M59.6119 77.8882C59.6119 81.3182 56.8318 84.1082 53.3918 84.1082C49.9618 84.1082 47.1719 81.3282 47.1719 77.8882C47.1719 74.4582 49.9518 71.6682 53.3918 71.6682C56.8218 71.6682 59.6119 74.4482 59.6119 77.8882Z" fill="#DAB8A2"/>
<path d="M58.2515 81.2582H40.8715C40.8715 81.2582 30.2815 80.6682 29.6515 89.3582C29.0215 98.0482 46.3715 124.508 48.9015 137.778L63.4415 136.578L51.7815 98.8682L77.8215 99.0182C79.7515 99.0282 81.6715 98.7482 83.4915 98.1182C88.5615 96.3582 96.3015 93.8382 92.0815 79.8782L58.2515 81.2582Z" fill="#24233C"/>
<path d="M5.82163 50.5283H35.8716C36.8616 50.5283 37.7116 51.2183 37.9216 52.1883L43.5816 78.7283C43.8616 80.0283 42.8616 81.2583 41.5316 81.2583H10.9816C9.98163 81.2583 9.12164 80.5483 8.93164 79.5683L3.77164 53.0283C3.51164 51.7283 4.50163 50.5283 5.82163 50.5283Z" fill="#B2B2B2"/>
<path d="M4.09165 50.5283H34.1317C35.1217 50.5283 35.9717 51.2183 36.1817 52.1883L41.8416 78.7283C42.1216 80.0283 41.1317 81.2583 39.7917 81.2583H9.25165C8.25165 81.2583 7.39166 80.5483 7.20166 79.5683L2.04166 53.0283C1.78166 51.7283 2.77165 50.5283 4.09165 50.5283Z" fill="#D1D1D1"/>
<path d="M42.7614 78.9883H63.2913C63.9213 78.9883 64.4213 79.4983 64.4213 80.1183C64.4213 80.7483 63.9113 81.2483 63.2913 81.2483H42.3613L42.7614 78.9883Z" fill="#B2B2B2"/>
<path d="M22.6918 65.1982C22.6918 67.0082 21.2318 68.4682 19.4218 68.4682C17.6118 68.4682 16.1519 66.9982 16.1519 65.1982C16.1519 63.3882 17.6218 61.9282 19.4218 61.9282C21.2318 61.9282 22.6918 63.3882 22.6918 65.1982Z" fill="white"/>
<path d="M76.1213 43.8581L87.1013 61.5881L60.8213 70.9681L64.4213 78.7481C64.4213 78.7481 86.8913 76.2281 97.7513 67.8581C98.7513 67.0881 99.2512 65.8381 99.0812 64.5881C98.5712 60.5881 96.3913 50.8781 87.1013 37.0781C85.2113 34.2681 81.4512 33.4181 78.5212 35.1181C75.4712 36.8781 74.4013 40.7781 76.1213 43.8581Z" fill="#0064FF"/>
<path d="M18.8101 68.4683L38.1 61.5883L28.45 45.9983" stroke="#EADDD8" stroke-width="0.7599" stroke-miterlimit="10" stroke-linecap="round" stroke-linejoin="round"/>
<path d="M5.75 62.5981L1 50.0581" stroke="#EADDD8" stroke-width="0.7599" stroke-miterlimit="10" stroke-linecap="round" stroke-linejoin="round"/>
<path d="M19.1201 78.2182C19.1201 78.2182 33.8801 76.3682 41.3201 72.1082" stroke="#EADDD8" stroke-width="0.7599" stroke-miterlimit="10" stroke-linecap="round" stroke-linejoin="round"/>
</svg>
