<svg width="22" height="24" viewBox="0 0 22 24" fill="none" xmlns="http://www.w3.org/2000/svg">
<path d="M5.67676 10.5H12.7994V12H5.67676V10.5ZM5.67676 14.25H14.0944V15.75H5.67676V14.25Z" fill="#696974"/>
<path d="M18.6268 3H3.08652C2.74306 3 2.41367 3.15804 2.17081 3.43934C1.92794 3.72064 1.7915 4.10218 1.7915 4.5V19.5C1.7915 19.8978 1.92794 20.2794 2.17081 20.5607C2.41367 20.842 2.74306 21 3.08652 21H18.6268C18.9702 21 19.2996 20.842 19.5425 20.5607C19.7853 20.2794 19.9218 19.8978 19.9218 19.5V4.5C19.9218 4.10218 19.7853 3.72064 19.5425 3.43934C19.2996 3.15804 18.9702 3 18.6268 3ZM18.6268 4.5V6H3.08652V4.5H18.6268ZM3.08652 19.5V7.5H18.6268V19.5H3.08652Z" fill="#696974"/>
</svg>
